<svg width="32" height="32" viewBox="0 0 32 32" fill="none" xmlns="http://www.w3.org/2000/svg">
<path fill-rule="evenodd" clip-rule="evenodd" d="M16.0001 2.00002C12.6764 2.00047 9.46124 3.1834 6.9298 5.33722C4.39836 7.49103 2.71576 10.4752 2.18301 13.756C1.65025 17.0367 2.30207 20.4 4.02189 23.2441C5.74171 26.0883 8.41732 28.2279 11.5701 29.28C12.2701 29.41 12.5701 28.98 12.5701 28.61V26.23C8.6801 27.07 7.8601 24.35 7.8601 24.35C7.58655 23.4929 7.01082 22.7643 6.2401 22.3C4.9701 21.44 6.3401 21.45 6.3401 21.45C6.7837 21.5127 7.20712 21.6759 7.57801 21.9272C7.9489 22.1785 8.25745 22.5113 8.4801 22.9C8.86744 23.5948 9.51484 24.1072 10.2799 24.3248C11.045 24.5423 11.8652 24.4471 12.5601 24.06C12.6166 23.3505 12.9294 22.6858 13.4401 22.19C10.3401 21.83 7.0701 20.63 7.0701 15.27C7.04743 13.8779 7.56333 12.5309 8.5101 11.51C8.08156 10.3042 8.13167 8.98 8.6501 7.81002C8.6501 7.81002 9.8201 7.43002 12.5001 9.24002C14.7916 8.61497 17.2086 8.61497 19.5001 9.24002C22.1701 7.43002 23.3401 7.81002 23.3401 7.81002C23.8585 8.98 23.9086 10.3042 23.4801 11.51C24.4269 12.5309 24.9428 13.8779 24.9201 15.27C24.9201 20.65 21.6501 21.83 18.5301 22.18C18.8643 22.5188 19.122 22.9252 19.2859 23.372C19.4498 23.8188 19.516 24.2955 19.4801 24.77V28.61C19.4801 29.07 19.7301 29.42 20.4801 29.28C23.637 28.2265 26.3154 26.0829 28.035 23.2335C29.7545 20.3841 30.4027 17.0153 29.8634 13.7312C29.3241 10.4471 27.6325 7.4626 25.092 5.31279C22.5514 3.16298 19.3281 1.98853 16.0001 2.00002V2.00002Z"/>
</svg>
