<svg width="50" height="58" viewBox="0 0 50 58" fill="none" xmlns="http://www.w3.org/2000/svg">
<path id="Vector" d="M41.2294 13.3394V10.7859C41.2294 5.99253 36.4535 2.63266 32.0459 4.45819C29.8365 -1.61197 21.5123 -1.38798 19.4926 4.54779C15.2077 2.77826 10.3649 5.98133 10.3649 10.8083V27.1261C8.0997 25.5918 5.05342 25.5694 2.73244 27.2941C-0.235727 29.4892 -0.882922 33.689 1.27068 36.6905L15.2188 56.2225C15.721 56.9281 16.5356 57.3425 17.3948 57.3425H43.3049C44.5546 57.3425 45.637 56.4801 45.916 55.2594L49.4198 40.0728C49.7991 38.4152 50 36.7129 50 34.9994V19.7344C50 15.0866 45.4696 11.8835 41.2294 13.3394ZM46.4293 34.9994C46.4293 36.4329 46.2619 37.8665 45.9383 39.2552L42.5907 53.7474H17.8523L4.17189 34.5962C3.16763 33.1851 3.46891 31.1915 4.85257 30.1724C6.22507 29.1532 8.15549 29.4556 9.15976 30.8667L12.3176 35.2794C12.8198 35.9849 13.9356 35.6266 13.9356 34.753V10.8083C13.9356 6.55251 20.1174 6.6757 20.1174 10.8867V28.6716C20.1174 29.1644 20.5191 29.5676 21.0101 29.5676H21.8024C22.2934 29.5676 22.6951 29.1644 22.6951 28.6716V6.7429C22.6951 2.48707 28.8769 2.61026 28.8769 6.8213V28.6604C28.8769 29.1532 29.2786 29.5564 29.7696 29.5564H30.5618C31.0528 29.5564 31.4545 29.1532 31.4545 28.6604V10.7075C31.4545 6.45171 37.6363 6.57491 37.6363 10.7859V28.6716C37.6363 29.1644 38.0381 29.5676 38.529 29.5676H39.3213C39.8123 29.5676 40.214 29.1644 40.214 28.6716V19.824C40.214 15.6129 46.3958 15.4786 46.3958 19.7456V34.9994H46.4293Z" fill="white"/>
</svg>
