<svg width="32" height="32" viewBox="0 0 32 32" fill="none" xmlns="http://www.w3.org/2000/svg">
<path d="M4.45544 11.4861L15.4242 4.17359C15.7986 3.94319 16.1981 3.94108 16.5759 4.17359L27.5447 11.4861C27.8259 11.6736 28 12.0084 28 12.3432V19.6557C28 19.9905 27.8259 20.3254 27.5446 20.5129L16.5759 27.8264C16.2015 28.0568 15.8019 28.0589 15.4241 27.8264L4.45539 20.5129C4.17414 20.3254 4 19.9905 4 19.6557V12.3432C4.00005 12.0084 4.17414 11.6736 4.45544 11.4861ZM14.9688 6.95924L6.89288 12.3432L10.4955 14.754L14.9688 11.7673V6.95924ZM17.0313 6.95924V11.7673L21.5045 14.754L25.1072 12.3432L17.0313 6.95924ZM25.9375 14.2718L23.3527 15.9995L25.9375 17.7272V14.2718ZM17.0313 25.0397L25.1072 19.6557L21.5045 17.245L17.0313 20.2317V25.0397ZM16 18.437L19.6429 15.9995L16 13.562L12.3571 15.9995L16 18.437ZM14.9688 25.0397V20.2317L10.4955 17.245L6.89288 19.6557L14.9688 25.0397ZM6.06254 17.7272L8.64737 15.9995L6.06254 14.2718V17.7272Z"/>
</svg>
